<?xml version="1.0" encoding="utf-8"?>
<!-- Generator: Adobe Illustrator 17.0.0, SVG Export Plug-In . SVG Version: 6.00 Build 0)  -->
<svg xmlns="http://www.w3.org/2000/svg" width="133.72" height="116.977" viewBox="0 0 133.72 116.977">
  <g id="Group_369" data-name="Group 369" transform="translate(-34.265 -34.265)">
    <g id="Group_368" data-name="Group 368">
      <path id="Path_3931" data-name="Path 3931" d="M127.163,115.961l4.169-47.083L126.783,51.4H70.535l-4.549,17.48,4.169,47.083Z" fill="#db0007"/>
      <path id="Path_3932" data-name="Path 3932" d="M126.783,51.4H117.4c-1-6.94-2.669-11.2-5.368-11.2-2.818,0-4.624,4.285-5.722,11.2H91c-1.1-6.913-2.9-11.2-5.722-11.2-2.7,0-4.366,4.258-5.368,11.2h-9.38c4.347-11.987,10.321-17.132,15.2-17.132,4.767,0,9.668,5.092,12.928,11.423,3.26-6.331,8.161-11.423,12.928-11.423C116.462,34.265,122.435,39.41,126.783,51.4Zm-6.83,30.757,2.508,1.148,1.209-2.644-6.9-3.156-1.21,2.643,2.121.971c-2.082,7.457-9.809,13-19.024,13s-16.942-5.538-19.024-13l2.121-.971L80.546,77.5l-6.9,3.156L74.857,83.3l2.508-1.148c3.026,9.94,11.416,17.088,21.294,17.088S116.927,92.094,119.953,82.154Z" fill="#ffbc0d"/>
    </g>
    <path id="Path_3933" data-name="Path 3933" d="M110.988,144.834l2.392-16.58,4.346.138,3.144,10.566,3.834-10.344,4.346.138,1.334,16.7-4.446-.141-.645-10.188-3.24,8.846-2.756-.088-2.693-9.134-1.319,10.225Zm26.19-1.6a7.064,7.064,0,0,1-3.159-.9,5.392,5.392,0,0,1-2.159-2.3,7.252,7.252,0,0,1-.634-3.732,7.362,7.362,0,0,1,.98-3.441,5.591,5.591,0,0,1,2.313-2.158,6.441,6.441,0,0,1,3.307-.621,6.357,6.357,0,0,1,3.289,1.021,5.393,5.393,0,0,1,1.965,2.439,7.913,7.913,0,0,1,.522,3.514l-.047.818-8.211-.467a4.445,4.445,0,0,0,.6,2.436,1.81,1.81,0,0,0,1.411.789,1.734,1.734,0,0,0,1.264-.351,2.28,2.28,0,0,0,.688-1.155l4.018.228a4.98,4.98,0,0,1-2.275,3.044A6.784,6.784,0,0,1,137.178,143.232Zm.5-10.549a1.7,1.7,0,0,0-1.443.652,3.9,3.9,0,0,0-.777,2.059l4.044.23a4.331,4.331,0,0,0-.477-2.117A1.579,1.579,0,0,0,137.678,132.683ZM148.984,145.9a4.3,4.3,0,0,1-2.914-.669,3.2,3.2,0,0,1-1.328-2.5,3.39,3.39,0,0,1,.514-2.264,4.786,4.786,0,0,1,1.738-1.523,10.326,10.326,0,0,1,2.438-.923,19.463,19.463,0,0,1,2.591-.463l-.023-.272a2.851,2.851,0,0,0-.552-1.611,1.353,1.353,0,0,0-1.227-.479,1.556,1.556,0,0,0-1.053.5,1.965,1.965,0,0,0-.467,1.226l-3.961.344a4.572,4.572,0,0,1,1.564-3.241,6.535,6.535,0,0,1,3.84-1.444,5.578,5.578,0,0,1,4.292,1.035,5.852,5.852,0,0,1,1.715,4.078l.627,7.2-3.763.328-.241-1.625a4.418,4.418,0,0,1-1.6,1.586A5.122,5.122,0,0,1,148.984,145.9Zm1.432-2.743a1.912,1.912,0,0,0,1.414-.809,2.886,2.886,0,0,0,.435-2.021l-.084-.965a4.737,4.737,0,0,0-2.6.888,1.822,1.822,0,0,0-.674,1.567,1.444,1.444,0,0,0,.479,1.068A1.414,1.414,0,0,0,150.416,143.159Zm7.855,2,.56-17.383,4.222.136-.56,17.384Zm7.934-13.1a1.86,1.86,0,0,1-.929-.225,1.612,1.612,0,0,1-.625-.625,2.064,2.064,0,0,1,0-1.874,1.609,1.609,0,0,1,.625-.624,2.024,2.024,0,0,1,1.859,0,1.622,1.622,0,0,1,.625.624,2.064,2.064,0,0,1,0,1.874,1.625,1.625,0,0,1-.625.625A1.861,1.861,0,0,1,166.205,132.062Zm0-.443a1.212,1.212,0,0,0,.923-.36,1.6,1.6,0,0,0,0-1.975,1.376,1.376,0,0,0-1.856,0,1.639,1.639,0,0,0,0,1.975A1.2,1.2,0,0,0,166.205,131.619Zm-.711-.472v-1.794h.762q.713,0,.712.545a.372.372,0,0,1-.116.283.655.655,0,0,1-.3.152.694.694,0,0,1,.327.3,1.544,1.544,0,0,1,.174.512h-.523a1.308,1.308,0,0,0-.178-.49.39.39,0,0,0-.345-.178h-.014v.668Zm.675-1.467h-.174v.464h.174a.326.326,0,0,0,.229-.065.213.213,0,0,0,.069-.16.232.232,0,0,0-.069-.17A.317.317,0,0,0,166.169,129.68ZM36.357,147.592l-2.092-16.474,4.377-.556.827,6.516,5.508-.7-.827-6.517,4.377-.555,2.091,16.474-4.377.556-.855-6.738-5.508.7.856,6.737Zm18.714-3.858a4.286,4.286,0,0,1-2.837-.918,3.189,3.189,0,0,1-1.1-2.6,3.383,3.383,0,0,1,.707-2.207,4.784,4.784,0,0,1,1.859-1.363,10.332,10.332,0,0,1,2.5-.706,19.263,19.263,0,0,1,2.615-.235v-.274a2.84,2.84,0,0,0-.409-1.648,1.351,1.351,0,0,0-1.177-.582,1.555,1.555,0,0,0-1.091.409,1.962,1.962,0,0,0-.57,1.177H51.6a4.556,4.556,0,0,1,1.835-3.085,6.519,6.519,0,0,1,3.94-1.1,5.567,5.567,0,0,1,4.177,1.4,5.837,5.837,0,0,1,1.351,4.2v7.213H59.136l-.1-1.636a4.389,4.389,0,0,1-1.723,1.437A5.082,5.082,0,0,1,55.071,143.734Zm1.661-2.6a1.906,1.906,0,0,0,1.475-.681,2.877,2.877,0,0,0,.607-1.971v-.967a4.736,4.736,0,0,0-2.664.657,1.819,1.819,0,0,0-.806,1.5,1.443,1.443,0,0,0,.384,1.1A1.413,1.413,0,0,0,56.732,141.131Zm6.636,9.705,1.709-17.615,3.749.364-.048,2.037a3.923,3.923,0,0,1,3.977-1.98,4.233,4.233,0,0,1,2.558,1.108,5.473,5.473,0,0,1,1.488,2.5,8.861,8.861,0,0,1,.279,3.414A8.533,8.533,0,0,1,76.108,144a5.444,5.444,0,0,1-2.012,2.133,4.477,4.477,0,0,1-2.757.567,4.06,4.06,0,0,1-1.83-.639,3.577,3.577,0,0,1-1.3-1.482l-.646,6.66Zm6.971-7.169a1.651,1.651,0,0,0,1.629-.875,5.78,5.78,0,0,0,.77-2.552,5.862,5.862,0,0,0-.264-2.665,1.651,1.651,0,0,0-1.43-1.185,1.723,1.723,0,0,0-1.592.754,4.757,4.757,0,0,0-.812,2.474l-.043.444a4.706,4.706,0,0,0,.324,2.559A1.722,1.722,0,0,0,70.339,143.667Zm7.782,5.652.388-17.694,3.766.083.1,2.036a3.92,3.92,0,0,1,3.817-2.272,4.23,4.23,0,0,1,2.633.913,5.481,5.481,0,0,1,1.671,2.379,8.846,8.846,0,0,1,.533,3.384,8.53,8.53,0,0,1-.719,3.4,5.444,5.444,0,0,1-1.847,2.278,4.482,4.482,0,0,1-2.707.771,4.067,4.067,0,0,1-1.873-.5,3.579,3.579,0,0,1-1.408-1.381l-.146,6.69Zm6.415-7.669a1.651,1.651,0,0,0,1.559-.995,5.772,5.772,0,0,0,.578-2.6,5.858,5.858,0,0,0-.463-2.638A1.649,1.649,0,0,0,84.7,134.34a1.723,1.723,0,0,0-1.532.871,4.768,4.768,0,0,0-.625,2.528l-.01.446a4.709,4.709,0,0,0,.515,2.527A1.723,1.723,0,0,0,84.536,141.65Zm8.236,8.577.611-2.65a3.892,3.892,0,0,0,1.536.173,1.665,1.665,0,0,0,.99-.446,3.654,3.654,0,0,0,.787-1.5l.362-1.132-6.013-11.762,4.341-.427,3.14,7.612,1.523-8.07,4.07-.4-3.953,14.012a8.954,8.954,0,0,1-1.742,3.559,4.111,4.111,0,0,1-2.755,1.366,7.232,7.232,0,0,1-1.594-.005A4.825,4.825,0,0,1,92.772,150.227Z" fill="#db0007"/>
  </g>
</svg>
